<svg xmlns="http://www.w3.org/2000/svg" viewBox="0 0 32 32"><rect width="32" height="32" fill="#F7DF1E" rx="6"/><path d="M19.5 24.7c.6 1.1 1.3 2 2.7 2 1.1 0 1.8-.5 1.8-1.2 0-.8-.6-1.1-2-1.6l-.7-.3c-2-.7-3.3-1.6-3.3-3.6 0-1.8 1.4-3.2 3.6-3.2 1.6 0 2.7.6 3.5 2l-1.9 1.2c-.4-.7-.8-1-1.6-1-.7 0-1.1.4-1.1 1 0 .7.4 1 1.5 1.5l.7.3c2.3.8 3.6 1.7 3.6 3.7 0 2.1-1.7 3.3-4 3.3-2.2 0-3.6-1-4.3-2.3l2-1.1zm-8.2.2c.4.7.8 1.3 1.7 1.3.8 0 1.3-.3 1.3-1.6v-7.1h2.4v7.2c0 2.5-1.5 3.6-3.6 3.6-1.9 0-3-1-3.6-2.2l2-1.2z" fill="#000"/></svg> 