<svg xmlns="http://www.w3.org/2000/svg" viewBox="0 0 24 24"><path d="M16.7 19.1c-1.1 0-2-.4-2.7-1.1-2 1-4.2 1-6.2 0-1.1 1.1-2.5 1.4-3.8.9-1.1-.4-1.9-1.2-2.3-2.3-.4-1.1-.2-2.3.5-3.2.6-.8 1.6-1.3 2.6-1.1.2-1.1.6-2.1 1.4-2.9-1-2-1-4.2 0-6.2-1.1-1.1-1.4-2.5-.9-3.8.4-1.1 1.2-1.9 2.3-2.3 1.1-.4 2.3-.2 3.2.5.8.6 1.3 1.6 1.1 2.6 1.1.2 2.1.6 2.9 1.4 2-1 4.2-1 6.2 0 1.1-1.1 2.5-1.4 3.8-.9 1.1.4 1.9 1.2 2.3 2.3.4 1.1.2 2.3-.5 3.2-.6.8-1.6 1.3-2.6 1.1-.2 1.1-.6 2.1-1.4 2.9 1 2 1 4.2 0 6.2 1.1 1.1 1.4 2.5.9 3.8-.4 1.1-1.2 1.9-2.3 2.3-1.1.4-2.3.2-3.2-.5-.8-.6-1.3-1.6-1.1-2.6z" fill="#764ABC"/></svg> 